<svg xmlns="http://www.w3.org/2000/svg" width="400" height="500" viewBox="0 0 400 500" role="img" aria-label="Sequin Skirt Set illustration">
  <defs><linearGradient id="g-green-sequin-skirt-set" x1="0" y1="0" x2="0" y2="1">
    <stop offset="0" stop-color="#ffffff"/><stop offset="1" stop-color="#eee9e0"/>
  </linearGradient></defs>
  <rect width="400" height="500" fill="url(#g-green-sequin-skirt-set)"/>
  <ellipse cx="200" cy="486" rx="120" ry="20" fill="#1c1a17" opacity="0.12"/>
  <clipPath id="t-green-sequin-skirt-set"><path d="M162 176
    q38 -14 76 0
    l4 154
    q-38 12 -80 0 Z"/></clipPath>
  
  <rect x="166" y="326" width="30" height="150" rx="9" fill="#137A4E"/>
       <rect x="204" y="326" width="30" height="150" rx="9" fill="#137A4E"/>
  <rect x="142" y="180" width="20" height="150" rx="10" fill="#141414"/>
    <rect x="238" y="180" width="20" height="150" rx="10" fill="#141414"/>
    <circle cx="152" cy="326" r="9" fill="#8D5A34"/>
    <circle cx="248" cy="326" r="9" fill="#8D5A34"/>
  <path d="M162 176
    q38 -14 76 0
    l4 154
    q-38 12 -80 0 Z" fill="#141414" stroke="#1c1a17" stroke-opacity="0.14" stroke-width="2"/>
  <g clip-path="url(#t-green-sequin-skirt-set)"></g>
  <rect x="192" y="150" width="16" height="30" fill="#8D5A34"/>
  <ellipse cx="200" cy="116" rx="40" ry="44" fill="#9A9A9A"/><circle cx="200" cy="76" r="12" fill="#9A9A9A"/>
  <ellipse cx="200" cy="126" rx="38" ry="44" fill="#8D5A34"/>
  <path d="M166 106 q34 -30 68 0 q-8 -14 -34 -14 q-26 0 -34 14 Z" fill="#9A9A9A"/>
  
  
</svg>