<svg xmlns="http://www.w3.org/2000/svg" width="400" height="500" viewBox="0 0 400 500" role="img" aria-label="Fair Isle Knit Set illustration">
  <defs><linearGradient id="g-pj-fairisle" x1="0" y1="0" x2="0" y2="1">
    <stop offset="0" stop-color="#ffffff"/><stop offset="1" stop-color="#eee9e0"/>
  </linearGradient></defs>
  <rect width="400" height="500" fill="url(#g-pj-fairisle)"/>
  <ellipse cx="200" cy="486" rx="120" ry="20" fill="#1c1a17" opacity="0.12"/>
  <clipPath id="t-pj-fairisle"><path d="M170 176
    q30 -14 60 0
    l4 154
    q-30 12 -64 0 Z"/></clipPath>
  
  <rect x="174" y="326" width="22" height="150" rx="9" fill="#E8DFC8"/>
       <rect x="204" y="326" width="22" height="150" rx="9" fill="#E8DFC8"/>
  <rect x="150" y="180" width="20" height="150" rx="10" fill="#E8DFC8"/>
    <rect x="230" y="180" width="20" height="150" rx="10" fill="#E8DFC8"/>
    <circle cx="160" cy="326" r="9" fill="#F4D2B4"/>
    <circle cx="240" cy="326" r="9" fill="#F4D2B4"/>
  <path d="M170 176
    q30 -14 60 0
    l4 154
    q-30 12 -64 0 Z" fill="#E8DFC8" stroke="#1c1a17" stroke-opacity="0.14" stroke-width="2"/>
  <g clip-path="url(#t-pj-fairisle)"><g fill="#B0403A" opacity="0.8"><path d="M178 198 l7 -9 l7 9 l-7 9 Z"/><path d="M196 198 l7 -9 l7 9 l-7 9 Z"/><path d="M214 198 l7 -9 l7 9 l-7 9 Z"/><path d="M178 224 l7 -9 l7 9 l-7 9 Z"/><path d="M196 224 l7 -9 l7 9 l-7 9 Z"/><path d="M214 224 l7 -9 l7 9 l-7 9 Z"/><path d="M178 250 l7 -9 l7 9 l-7 9 Z"/><path d="M196 250 l7 -9 l7 9 l-7 9 Z"/><path d="M214 250 l7 -9 l7 9 l-7 9 Z"/></g></g>
  <rect x="192" y="150" width="16" height="30" fill="#F4D2B4"/>
  <ellipse cx="200" cy="116" rx="40" ry="44" fill="#6B3B1E"/><circle cx="200" cy="76" r="12" fill="#6B3B1E"/>
  <ellipse cx="200" cy="126" rx="38" ry="44" fill="#F4D2B4"/>
  <path d="M166 106 q34 -30 68 0 q-8 -14 -34 -14 q-26 0 -34 14 Z" fill="#6B3B1E"/>
  
  
</svg>