<svg xmlns="http://www.w3.org/2000/svg" width="400" height="500" viewBox="0 0 400 500" role="img" aria-label="Reindeer Onesie illustration">
  <defs><linearGradient id="g-pj-reindeer-onesie" x1="0" y1="0" x2="0" y2="1">
    <stop offset="0" stop-color="#ffffff"/><stop offset="1" stop-color="#eee9e0"/>
  </linearGradient></defs>
  <rect width="400" height="500" fill="url(#g-pj-reindeer-onesie)"/>
  <ellipse cx="200" cy="486" rx="120" ry="20" fill="#1c1a17" opacity="0.12"/>
  <clipPath id="t-pj-reindeer-onesie"><path d="M162 176
    q38 -14 76 0
    l4 154
    q-38 12 -80 0 Z"/></clipPath>
  
  <rect x="166" y="326" width="30" height="150" rx="9" fill="#BB8B5C"/>
       <rect x="204" y="326" width="30" height="150" rx="9" fill="#BB8B5C"/>
  <rect x="142" y="180" width="20" height="150" rx="10" fill="#BB8B5C"/>
    <rect x="238" y="180" width="20" height="150" rx="10" fill="#BB8B5C"/>
    <circle cx="152" cy="326" r="9" fill="#E7B58C"/>
    <circle cx="248" cy="326" r="9" fill="#E7B58C"/>
  <path d="M162 176
    q38 -14 76 0
    l4 154
    q-38 12 -80 0 Z" fill="#BB8B5C" stroke="#1c1a17" stroke-opacity="0.14" stroke-width="2"/>
  <g clip-path="url(#t-pj-reindeer-onesie)"></g>
  <rect x="192" y="150" width="16" height="30" fill="#E7B58C"/>
  <ellipse cx="200" cy="118" rx="42" ry="46" fill="#0C0C0C"/>
  <ellipse cx="200" cy="126" rx="38" ry="44" fill="#E7B58C"/>
  <path d="M164 108 q36 -34 72 0 q-10 -16 -36 -16 q-26 0 -36 16 Z" fill="#0C0C0C"/>
  <path d="M172 86 q-24 -18 -30 -44 q22 6 30 26 M172 70 q-18 -6 -24 -22" stroke="#6B4226" stroke-width="5" fill="none"/><path d="M228 86 q24 -18 30 -44 q-22 6 -30 26 M228 70 q18 -6 24 -22" stroke="#6B4226" stroke-width="5" fill="none"/>
  
</svg>